<svg width="133" height="64" viewBox="0 0 133 64" fill="none" xmlns="http://www.w3.org/2000/svg">
<path d="M28.392 64H0.36V59.872C2.984 59.872 4.936 59.68 6.216 59.296C7.496 58.848 8.328 57.984 8.712 56.704C9.096 55.424 9.288 53.472 9.288 50.848V13.216C9.288 10.848 9 9.12 8.424 8.032C7.912 6.88 6.984 6.144 5.64 5.824C4.36 5.504 2.6 5.344 0.36 5.344V0.927999H28.008C32.808 0.927999 37.48 1.344 42.024 2.17599C46.568 3.008 50.664 4.512 54.312 6.688C57.96 8.864 60.84 11.936 62.952 15.904C65.128 19.872 66.216 25.024 66.216 31.36C66.216 37.632 65.224 42.88 63.24 47.104C61.32 51.264 58.6 54.592 55.08 57.088C51.624 59.584 47.592 61.376 42.984 62.464C38.44 63.488 33.576 64 28.392 64ZM27.912 58.528C32.712 58.528 36.84 57.824 40.296 56.416C43.752 55.008 46.408 52.448 48.264 48.736C50.12 44.96 51.048 39.52 51.048 32.416C51.048 24.032 49.096 17.6 45.192 13.12C41.352 8.64 35.368 6.4 27.24 6.4C26.664 6.4 26.088 6.4 25.512 6.4C25 6.4 24.328 6.432 23.496 6.496V58.432C24.264 58.496 25.032 58.528 25.8 58.528C26.568 58.528 27.272 58.528 27.912 58.528ZM107.873 64H73.8888V59.872C76.4488 59.872 78.3688 59.68 79.6488 59.296C80.9288 58.848 81.7608 58.016 82.1448 56.8C82.5928 55.52 82.8168 53.632 82.8168 51.136V13.408C82.8168 10.976 82.5928 9.184 82.1448 8.032C81.6968 6.816 80.8328 6.04799 79.5528 5.72799C78.2728 5.344 76.3848 5.152 73.8888 5.152V0.927999H105.953C111.841 0.927999 116.481 1.536 119.873 2.752C123.265 3.904 125.665 5.568 127.073 7.744C128.481 9.856 129.185 12.352 129.185 15.232C129.185 19.52 127.873 22.784 125.249 25.024C122.625 27.264 119.265 28.928 115.169 30.016V30.592C117.921 30.976 120.577 31.712 123.137 32.8C125.761 33.888 127.905 35.552 129.569 37.792C131.297 40.032 132.161 43.104 132.161 47.008C132.161 52.64 130.049 56.896 125.825 59.776C121.665 62.592 115.681 64 107.873 64ZM102.497 59.2C104.481 59.2 106.305 59.104 107.969 58.912C109.633 58.656 111.073 58.144 112.289 57.376C113.505 56.544 114.433 55.296 115.073 53.632C115.777 51.968 116.129 49.728 116.129 46.912C116.129 43.008 115.489 40.128 114.209 38.272C112.929 36.352 111.265 35.104 109.217 34.528C107.233 33.888 105.057 33.568 102.689 33.568H97.1208V58.912C98.0168 58.976 98.8808 59.04 99.7128 59.104C100.545 59.168 101.473 59.2 102.497 59.2ZM97.1208 6.496V28.48H101.825C106.561 28.48 109.729 27.648 111.329 25.984C112.993 24.256 113.825 21.312 113.825 17.152C113.825 13.376 112.993 10.624 111.329 8.896C109.665 7.104 106.433 6.20799 101.633 6.20799C100.929 6.20799 100.225 6.24 99.5208 6.304C98.8168 6.304 98.0168 6.368 97.1208 6.496Z" fill="white"/>
</svg>
