<svg width="139" height="104" viewBox="0 0 139 104" fill="none" xmlns="http://www.w3.org/2000/svg">
<path d="M31.392 75H3.36V70.872C5.984 70.872 7.936 70.68 9.216 70.296C10.496 69.848 11.328 68.984 11.712 67.704C12.096 66.424 12.288 64.472 12.288 61.848V24.216C12.288 21.848 12 20.12 11.424 19.032C10.912 17.88 9.984 17.144 8.64 16.824C7.36 16.504 5.6 16.344 3.36 16.344V11.928H31.008C35.808 11.928 40.48 12.344 45.024 13.176C49.568 14.008 53.664 15.512 57.312 17.688C60.96 19.864 63.84 22.936 65.952 26.904C68.128 30.872 69.216 36.024 69.216 42.36C69.216 48.632 68.224 53.88 66.24 58.104C64.32 62.264 61.6 65.592 58.08 68.088C54.624 70.584 50.592 72.376 45.984 73.464C41.44 74.488 36.576 75 31.392 75ZM30.912 69.528C35.712 69.528 39.84 68.824 43.296 67.416C46.752 66.008 49.408 63.448 51.264 59.736C53.12 55.96 54.048 50.52 54.048 43.416C54.048 35.032 52.096 28.6 48.192 24.12C44.352 19.64 38.368 17.4 30.24 17.4C29.664 17.4 29.088 17.4 28.512 17.4C28 17.4 27.328 17.432 26.496 17.496V69.432C27.264 69.496 28.032 69.528 28.8 69.528C29.568 69.528 30.272 69.528 30.912 69.528ZM110.873 75H76.8888V70.872C79.4488 70.872 81.3688 70.68 82.6488 70.296C83.9288 69.848 84.7608 69.016 85.1448 67.8C85.5928 66.52 85.8168 64.632 85.8168 62.136V24.408C85.8168 21.976 85.5928 20.184 85.1448 19.032C84.6968 17.816 83.8328 17.048 82.5528 16.728C81.2728 16.344 79.3848 16.152 76.8888 16.152V11.928H108.953C114.841 11.928 119.481 12.536 122.873 13.752C126.265 14.904 128.665 16.568 130.073 18.744C131.481 20.856 132.185 23.352 132.185 26.232C132.185 30.52 130.873 33.784 128.249 36.024C125.625 38.264 122.265 39.928 118.169 41.016V41.592C120.921 41.976 123.577 42.712 126.137 43.8C128.761 44.888 130.905 46.552 132.569 48.792C134.297 51.032 135.161 54.104 135.161 58.008C135.161 63.64 133.049 67.896 128.825 70.776C124.665 73.592 118.681 75 110.873 75ZM105.497 70.2C107.481 70.2 109.305 70.104 110.969 69.912C112.633 69.656 114.073 69.144 115.289 68.376C116.505 67.544 117.433 66.296 118.073 64.632C118.777 62.968 119.129 60.728 119.129 57.912C119.129 54.008 118.489 51.128 117.209 49.272C115.929 47.352 114.265 46.104 112.217 45.528C110.233 44.888 108.057 44.568 105.689 44.568H100.121V69.912C101.017 69.976 101.881 70.04 102.713 70.104C103.545 70.168 104.473 70.2 105.497 70.2ZM100.121 17.496V39.48H104.825C109.561 39.48 112.729 38.648 114.329 36.984C115.993 35.256 116.825 32.312 116.825 28.152C116.825 24.376 115.993 21.624 114.329 19.896C112.665 18.104 109.433 17.208 104.633 17.208C103.929 17.208 103.225 17.24 102.521 17.304C101.817 17.304 101.017 17.368 100.121 17.496Z" fill="url(#paint0_linear_120_439)"/>
<path d="M7.884 96.112C7.548 96.112 7.21667 96.0933 6.89 96.056C6.56333 96.0187 6.21333 95.958 5.84 95.874V86.424C6.25067 86.3307 6.638 86.27 7.002 86.242C7.37533 86.2047 7.72533 86.186 8.052 86.186C8.91067 86.186 9.662 86.354 10.306 86.69C10.95 87.026 11.454 87.558 11.818 88.286C12.182 89.014 12.364 89.966 12.364 91.142C12.364 92.346 12.168 93.312 11.776 94.04C11.3933 94.768 10.866 95.2953 10.194 95.622C9.522 95.9487 8.752 96.112 7.884 96.112ZM8.066 94.6C8.66333 94.6 9.14867 94.4647 9.522 94.194C9.89533 93.914 10.166 93.5173 10.334 93.004C10.502 92.4813 10.586 91.8607 10.586 91.142C10.586 90.4793 10.5113 89.8913 10.362 89.378C10.2127 88.8647 9.96533 88.4587 9.62 88.16C9.27467 87.852 8.80333 87.698 8.206 87.698C8.10333 87.698 7.996 87.7027 7.884 87.712C7.78133 87.712 7.67867 87.7213 7.576 87.74V94.572C7.65067 94.5813 7.73 94.5907 7.814 94.6C7.90733 94.6 7.99133 94.6 8.066 94.6ZM17.3322 96.168C16.5015 96.168 15.7875 96.0187 15.1902 95.72C14.6022 95.4213 14.1495 94.992 13.8322 94.432C13.5242 93.8627 13.3702 93.1767 13.3702 92.374C13.3702 91.7207 13.4635 91.1513 13.6502 90.666C13.8462 90.1807 14.1075 89.7747 14.4342 89.448C14.7702 89.1213 15.1435 88.8787 15.5542 88.72C15.9649 88.552 16.3895 88.468 16.8282 88.468C17.5375 88.468 18.1302 88.6127 18.6062 88.902C19.0915 89.182 19.4602 89.602 19.7122 90.162C19.9642 90.7127 20.0902 91.4033 20.0902 92.234C20.0902 92.3367 20.0855 92.4487 20.0762 92.57C20.0762 92.6913 20.0715 92.794 20.0622 92.878H15.1482C15.1669 93.438 15.3815 93.872 15.7922 94.18C16.2029 94.488 16.7489 94.642 17.4302 94.642C17.8315 94.642 18.2049 94.6047 18.5502 94.53C18.9049 94.446 19.1895 94.3667 19.4042 94.292L19.6422 95.762C19.3622 95.874 19.0262 95.9673 18.6342 96.042C18.2515 96.126 17.8175 96.168 17.3322 96.168ZM15.1622 91.618H18.3822C18.3822 91.31 18.3262 91.03 18.2142 90.778C18.1115 90.526 17.9435 90.3253 17.7102 90.176C17.4862 90.0173 17.2015 89.938 16.8562 89.938C16.5015 89.938 16.2029 90.0173 15.9602 90.176C15.7269 90.3347 15.5449 90.5447 15.4142 90.806C15.2835 91.058 15.1995 91.3287 15.1622 91.618ZM23.7844 96C23.4764 95.3747 23.1544 94.6747 22.8184 93.9C22.4917 93.1253 22.1697 92.2993 21.8524 91.422C21.5444 90.5353 21.2504 89.616 20.9704 88.664H22.8044C22.9537 89.2053 23.1264 89.798 23.3224 90.442C23.5184 91.086 23.7237 91.716 23.9384 92.332C24.1624 92.9387 24.3724 93.4847 24.5684 93.97C24.7084 93.6153 24.8624 93.2187 25.0304 92.78C25.2077 92.3413 25.3804 91.884 25.5484 91.408C25.7257 90.9227 25.8937 90.4467 26.0524 89.98C26.211 89.5133 26.3417 89.0747 26.4444 88.664H28.2224C28.017 89.3827 27.7884 90.0827 27.5364 90.764C27.2937 91.436 27.0417 92.0847 26.7804 92.71C26.5284 93.326 26.2717 93.9093 26.0104 94.46C25.7584 95.0107 25.5157 95.524 25.2824 96H23.7844ZM33.0086 96.168C32.1779 96.168 31.4639 96.0187 30.8666 95.72C30.2786 95.4213 29.8259 94.992 29.5086 94.432C29.2006 93.8627 29.0466 93.1767 29.0466 92.374C29.0466 91.7207 29.1399 91.1513 29.3266 90.666C29.5226 90.1807 29.7839 89.7747 30.1106 89.448C30.4466 89.1213 30.8199 88.8787 31.2306 88.72C31.6412 88.552 32.0659 88.468 32.5046 88.468C33.2139 88.468 33.8066 88.6127 34.2826 88.902C34.7679 89.182 35.1366 89.602 35.3886 90.162C35.6406 90.7127 35.7666 91.4033 35.7666 92.234C35.7666 92.3367 35.7619 92.4487 35.7526 92.57C35.7526 92.6913 35.7479 92.794 35.7386 92.878H30.8246C30.8432 93.438 31.0579 93.872 31.4686 94.18C31.8792 94.488 32.4252 94.642 33.1066 94.642C33.5079 94.642 33.8812 94.6047 34.2266 94.53C34.5812 94.446 34.8659 94.3667 35.0806 94.292L35.3186 95.762C35.0386 95.874 34.7026 95.9673 34.3106 96.042C33.9279 96.126 33.4939 96.168 33.0086 96.168ZM30.8386 91.618H34.0586C34.0586 91.31 34.0026 91.03 33.8906 90.778C33.7879 90.526 33.6199 90.3253 33.3866 90.176C33.1626 90.0173 32.8779 89.938 32.5326 89.938C32.1779 89.938 31.8792 90.0173 31.6366 90.176C31.4032 90.3347 31.2212 90.5447 31.0906 90.806C30.9599 91.058 30.8759 91.3287 30.8386 91.618ZM41.5467 96.168C40.9494 96.168 40.4687 96.0513 40.1047 95.818C39.7407 95.5847 39.4747 95.2393 39.3067 94.782C39.1387 94.3247 39.0547 93.7693 39.0547 93.116V86.662H36.9967V85.206H40.7907V93.214C40.7907 93.5873 40.8374 93.8767 40.9307 94.082C41.0241 94.2873 41.1501 94.432 41.3087 94.516C41.4767 94.6 41.6681 94.642 41.8827 94.642C42.2467 94.642 42.5594 94.5953 42.8207 94.502C43.0821 94.4087 43.2641 94.3387 43.3667 94.292L43.5907 95.706C43.5161 95.7527 43.3014 95.8413 42.9467 95.972C42.5921 96.1027 42.1254 96.168 41.5467 96.168ZM48.1109 96.196C47.4389 96.196 46.8463 96.0327 46.3329 95.706C45.8196 95.3793 45.4183 94.9267 45.1289 94.348C44.8396 93.76 44.6949 93.0833 44.6949 92.318C44.6949 91.5433 44.8396 90.8713 45.1289 90.302C45.4276 89.7233 45.8336 89.2753 46.3469 88.958C46.8696 88.6313 47.4576 88.468 48.1109 88.468C48.7923 88.468 49.3896 88.6313 49.9029 88.958C50.4163 89.2753 50.8176 89.7233 51.1069 90.302C51.3963 90.8713 51.5409 91.5433 51.5409 92.318C51.5409 93.0833 51.3963 93.76 51.1069 94.348C50.8176 94.9267 50.4163 95.3793 49.9029 95.706C49.3989 96.0327 48.8016 96.196 48.1109 96.196ZM48.0969 94.67C48.4516 94.67 48.7503 94.572 48.9929 94.376C49.2449 94.18 49.4363 93.9093 49.5669 93.564C49.6976 93.2093 49.7629 92.7987 49.7629 92.332C49.7629 91.8653 49.6976 91.4547 49.5669 91.1C49.4456 90.7453 49.2636 90.4747 49.0209 90.288C48.7783 90.092 48.4749 89.994 48.1109 89.994C47.7656 89.994 47.4669 90.092 47.2149 90.288C46.9723 90.4747 46.7856 90.7453 46.6549 91.1C46.5243 91.4547 46.4589 91.8653 46.4589 92.332C46.4589 92.7987 46.5196 93.2093 46.6409 93.564C46.7716 93.9093 46.9583 94.18 47.2009 94.376C47.4436 94.572 47.7423 94.67 48.0969 94.67ZM53.0651 98.59V88.888C53.2798 88.8133 53.5364 88.748 53.8351 88.692C54.1431 88.636 54.4651 88.5893 54.8011 88.552C55.1464 88.5147 55.4871 88.496 55.8231 88.496C56.5698 88.496 57.2044 88.6547 57.7271 88.972C58.2498 89.28 58.6464 89.7233 58.9171 90.302C59.1971 90.8713 59.3371 91.548 59.3371 92.332C59.3371 93.0787 59.2251 93.7413 59.0011 94.32C58.7771 94.8987 58.4411 95.3513 57.9931 95.678C57.5544 96.0047 57.0131 96.168 56.3691 96.168C56.0798 96.168 55.8044 96.1353 55.5431 96.07C55.2818 96.0047 55.0298 95.9113 54.7871 95.79V98.59H53.0651ZM56.0471 94.656C56.3924 94.656 56.6771 94.5627 56.9011 94.376C57.1251 94.1893 57.2884 93.928 57.3911 93.592C57.5031 93.2467 57.5591 92.8407 57.5591 92.374C57.5591 91.6553 57.4098 91.0813 57.1111 90.652C56.8124 90.2133 56.3831 89.994 55.8231 89.994C55.6084 89.994 55.4078 90.008 55.2211 90.036C55.0438 90.0547 54.8991 90.0687 54.7871 90.078V94.292C54.9271 94.3947 55.1138 94.4833 55.3471 94.558C55.5804 94.6233 55.8138 94.656 56.0471 94.656ZM64.3613 96.168C63.5306 96.168 62.8166 96.0187 62.2193 95.72C61.6313 95.4213 61.1786 94.992 60.8613 94.432C60.5533 93.8627 60.3993 93.1767 60.3993 92.374C60.3993 91.7207 60.4926 91.1513 60.6793 90.666C60.8753 90.1807 61.1366 89.7747 61.4633 89.448C61.7993 89.1213 62.1726 88.8787 62.5833 88.72C62.994 88.552 63.4186 88.468 63.8573 88.468C64.5666 88.468 65.1593 88.6127 65.6353 88.902C66.1206 89.182 66.4893 89.602 66.7413 90.162C66.9933 90.7127 67.1193 91.4033 67.1193 92.234C67.1193 92.3367 67.1146 92.4487 67.1053 92.57C67.1053 92.6913 67.1006 92.794 67.0913 92.878H62.1773C62.196 93.438 62.4106 93.872 62.8213 94.18C63.232 94.488 63.778 94.642 64.4593 94.642C64.8606 94.642 65.234 94.6047 65.5793 94.53C65.934 94.446 66.2186 94.3667 66.4333 94.292L66.6713 95.762C66.3913 95.874 66.0553 95.9673 65.6633 96.042C65.2806 96.126 64.8466 96.168 64.3613 96.168ZM62.1913 91.618H65.4113C65.4113 91.31 65.3553 91.03 65.2433 90.778C65.1406 90.526 64.9726 90.3253 64.7393 90.176C64.5153 90.0173 64.2306 89.938 63.8853 89.938C63.5306 89.938 63.232 90.0173 62.9893 90.176C62.756 90.3347 62.574 90.5447 62.4433 90.806C62.3126 91.058 62.2286 91.3287 62.1913 91.618ZM69.1895 96V89.112C69.7028 88.9253 70.2255 88.7807 70.7575 88.678C71.2988 88.566 71.9055 88.51 72.5775 88.51C72.7455 88.51 72.9601 88.5193 73.2215 88.538C73.4828 88.5567 73.7535 88.5847 74.0335 88.622C74.3135 88.6593 74.5701 88.7153 74.8035 88.79L74.4955 90.386C74.3181 90.3393 74.1128 90.2973 73.8795 90.26C73.6555 90.2227 73.4361 90.1947 73.2215 90.176C73.0068 90.1573 72.8108 90.148 72.6335 90.148C72.3535 90.148 72.0735 90.1667 71.7935 90.204C71.5135 90.232 71.2288 90.2833 70.9395 90.358V96H69.1895ZM79.1137 96.168C78.7217 96.168 78.3623 96.1353 78.0357 96.07C77.709 96.014 77.4103 95.944 77.1397 95.86C76.8783 95.7667 76.645 95.678 76.4397 95.594L76.7337 94.11C77.0883 94.25 77.471 94.3853 77.8817 94.516C78.3017 94.6373 78.731 94.698 79.1697 94.698C79.6737 94.698 80.0563 94.656 80.3177 94.572C80.5883 94.4787 80.7237 94.3107 80.7237 94.068C80.7237 93.872 80.6443 93.7133 80.4857 93.592C80.3363 93.4613 80.1403 93.3493 79.8977 93.256C79.655 93.1627 79.389 93.0693 79.0997 92.976C78.8197 92.892 78.5303 92.794 78.2317 92.682C77.9423 92.57 77.6763 92.43 77.4337 92.262C77.191 92.094 76.995 91.884 76.8457 91.632C76.6963 91.38 76.6217 91.072 76.6217 90.708C76.6217 90.2973 76.729 89.924 76.9437 89.588C77.1583 89.2427 77.4943 88.972 77.9517 88.776C78.409 88.5707 78.997 88.468 79.7157 88.468C80.173 88.468 80.607 88.5053 81.0177 88.58C81.4377 88.6453 81.797 88.7387 82.0957 88.86L81.8157 90.358C81.7037 90.3113 81.5403 90.2553 81.3257 90.19C81.111 90.1247 80.8637 90.0687 80.5837 90.022C80.313 89.966 80.0283 89.938 79.7297 89.938C79.2163 89.938 78.857 90.0033 78.6517 90.134C78.4463 90.2553 78.3437 90.414 78.3437 90.61C78.3437 90.7687 78.4137 90.9087 78.5537 91.03C78.6937 91.1513 78.8757 91.2587 79.0997 91.352C79.333 91.436 79.585 91.5247 79.8557 91.618C80.145 91.7207 80.439 91.8327 80.7377 91.954C81.0457 92.0753 81.3257 92.2247 81.5777 92.402C81.839 92.57 82.0443 92.7847 82.1937 93.046C82.3523 93.298 82.4317 93.6153 82.4317 93.998C82.4317 94.418 82.3243 94.7913 82.1097 95.118C81.895 95.4447 81.545 95.7013 81.0597 95.888C80.5743 96.0747 79.9257 96.168 79.1137 96.168ZM95.014 96.168C94.678 96.168 94.3374 96.1493 93.992 96.112C93.6467 96.084 93.32 96.042 93.012 95.986C92.7134 95.9207 92.452 95.8507 92.228 95.776V85.416L93.978 85.122V88.86C94.2114 88.7387 94.4587 88.65 94.72 88.594C94.9907 88.5287 95.2707 88.496 95.56 88.496C96.204 88.496 96.7454 88.6593 97.184 88.986C97.632 89.3033 97.968 89.7513 98.192 90.33C98.4254 90.8993 98.542 91.5667 98.542 92.332C98.542 93.116 98.402 93.7973 98.122 94.376C97.842 94.9453 97.436 95.3887 96.904 95.706C96.3814 96.014 95.7514 96.168 95.014 96.168ZM94.944 94.67C95.504 94.67 95.9474 94.4833 96.274 94.11C96.6007 93.7273 96.764 93.1207 96.764 92.29C96.764 91.814 96.708 91.408 96.596 91.072C96.4934 90.736 96.3254 90.4747 96.092 90.288C95.868 90.1013 95.5834 90.008 95.238 90.008C95.0047 90.008 94.7714 90.0453 94.538 90.12C94.3047 90.1947 94.118 90.2787 93.978 90.372V94.558C94.1367 94.5953 94.3047 94.6233 94.482 94.642C94.6594 94.6607 94.8134 94.67 94.944 94.67ZM102.978 96.196C102.306 96.196 101.714 96.0327 101.2 95.706C100.687 95.3793 100.286 94.9267 99.9962 94.348C99.7069 93.76 99.5622 93.0833 99.5622 92.318C99.5622 91.5433 99.7069 90.8713 99.9962 90.302C100.295 89.7233 100.701 89.2753 101.214 88.958C101.737 88.6313 102.325 88.468 102.978 88.468C103.66 88.468 104.257 88.6313 104.77 88.958C105.284 89.2753 105.685 89.7233 105.974 90.302C106.264 90.8713 106.408 91.5433 106.408 92.318C106.408 93.0833 106.264 93.76 105.974 94.348C105.685 94.9267 105.284 95.3793 104.77 95.706C104.266 96.0327 103.669 96.196 102.978 96.196ZM102.964 94.67C103.319 94.67 103.618 94.572 103.86 94.376C104.112 94.18 104.304 93.9093 104.434 93.564C104.565 93.2093 104.63 92.7987 104.63 92.332C104.63 91.8653 104.565 91.4547 104.434 91.1C104.313 90.7453 104.131 90.4747 103.888 90.288C103.646 90.092 103.342 89.994 102.978 89.994C102.633 89.994 102.334 90.092 102.082 90.288C101.84 90.4747 101.653 90.7453 101.522 91.1C101.392 91.4547 101.326 91.8653 101.326 92.332C101.326 92.7987 101.387 93.2093 101.508 93.564C101.639 93.9093 101.826 94.18 102.068 94.376C102.311 94.572 102.61 94.67 102.964 94.67ZM110.816 96.196C110.144 96.196 109.552 96.0327 109.038 95.706C108.525 95.3793 108.124 94.9267 107.834 94.348C107.545 93.76 107.4 93.0833 107.4 92.318C107.4 91.5433 107.545 90.8713 107.834 90.302C108.133 89.7233 108.539 89.2753 109.052 88.958C109.575 88.6313 110.163 88.468 110.816 88.468C111.498 88.468 112.095 88.6313 112.608 88.958C113.122 89.2753 113.523 89.7233 113.812 90.302C114.102 90.8713 114.246 91.5433 114.246 92.318C114.246 93.0833 114.102 93.76 113.812 94.348C113.523 94.9267 113.122 95.3793 112.608 95.706C112.104 96.0327 111.507 96.196 110.816 96.196ZM110.802 94.67C111.157 94.67 111.456 94.572 111.698 94.376C111.95 94.18 112.142 93.9093 112.272 93.564C112.403 93.2093 112.468 92.7987 112.468 92.332C112.468 91.8653 112.403 91.4547 112.272 91.1C112.151 90.7453 111.969 90.4747 111.726 90.288C111.484 90.092 111.18 89.994 110.816 89.994C110.471 89.994 110.172 90.092 109.92 90.288C109.678 90.4747 109.491 90.7453 109.36 91.1C109.23 91.4547 109.164 91.8653 109.164 92.332C109.164 92.7987 109.225 93.2093 109.346 93.564C109.477 93.9093 109.664 94.18 109.906 94.376C110.149 94.572 110.448 94.67 110.802 94.67ZM115.771 96V85.416L117.507 85.122V91.618C117.796 91.31 118.09 90.988 118.389 90.652C118.687 90.316 118.972 89.9753 119.243 89.63C119.523 89.2847 119.765 88.9627 119.971 88.664H122.043C121.781 88.9907 121.473 89.3453 121.119 89.728C120.764 90.1107 120.405 90.4887 120.041 90.862C119.677 91.2353 119.331 91.5853 119.005 91.912C119.275 92.1453 119.569 92.4347 119.887 92.78C120.204 93.116 120.521 93.4753 120.839 93.858C121.156 94.2407 121.445 94.6187 121.707 94.992C121.968 95.356 122.173 95.692 122.323 96H120.321C120.171 95.7107 119.98 95.4027 119.747 95.076C119.523 94.7493 119.28 94.4273 119.019 94.11C118.757 93.7833 118.496 93.48 118.235 93.2C117.973 92.92 117.731 92.6913 117.507 92.514V96H115.771ZM126.143 96.168C125.751 96.168 125.391 96.1353 125.065 96.07C124.738 96.014 124.439 95.944 124.169 95.86C123.907 95.7667 123.674 95.678 123.469 95.594L123.763 94.11C124.117 94.25 124.5 94.3853 124.911 94.516C125.331 94.6373 125.76 94.698 126.199 94.698C126.703 94.698 127.085 94.656 127.347 94.572C127.617 94.4787 127.753 94.3107 127.753 94.068C127.753 93.872 127.673 93.7133 127.515 93.592C127.365 93.4613 127.169 93.3493 126.927 93.256C126.684 93.1627 126.418 93.0693 126.129 92.976C125.849 92.892 125.559 92.794 125.261 92.682C124.971 92.57 124.705 92.43 124.463 92.262C124.22 92.094 124.024 91.884 123.875 91.632C123.725 91.38 123.651 91.072 123.651 90.708C123.651 90.2973 123.758 89.924 123.973 89.588C124.187 89.2427 124.523 88.972 124.981 88.776C125.438 88.5707 126.026 88.468 126.745 88.468C127.202 88.468 127.636 88.5053 128.047 88.58C128.467 88.6453 128.826 88.7387 129.125 88.86L128.845 90.358C128.733 90.3113 128.569 90.2553 128.355 90.19C128.14 90.1247 127.893 90.0687 127.613 90.022C127.342 89.966 127.057 89.938 126.759 89.938C126.245 89.938 125.886 90.0033 125.681 90.134C125.475 90.2553 125.373 90.414 125.373 90.61C125.373 90.7687 125.443 90.9087 125.583 91.03C125.723 91.1513 125.905 91.2587 126.129 91.352C126.362 91.436 126.614 91.5247 126.885 91.618C127.174 91.7207 127.468 91.8327 127.767 91.954C128.075 92.0753 128.355 92.2247 128.607 92.402C128.868 92.57 129.073 92.7847 129.223 93.046C129.381 93.298 129.461 93.6153 129.461 93.998C129.461 94.418 129.353 94.7913 129.139 95.118C128.924 95.4447 128.574 95.7013 128.089 95.888C127.603 96.0747 126.955 96.168 126.143 96.168Z" fill="url(#paint1_linear_120_439)"/>
<path d="M4 102.992H137" stroke="url(#paint2_linear_120_439)"/>
<defs>
<linearGradient id="paint0_linear_120_439" x1="69.5" y1="0" x2="69.5" y2="100" gradientUnits="userSpaceOnUse">
<stop stop-color="#2D2A2A"/>
<stop offset="1" stop-color="#938A8A"/>
</linearGradient>
<linearGradient id="paint1_linear_120_439" x1="68" y1="82" x2="68" y2="100" gradientUnits="userSpaceOnUse">
<stop stop-color="#2D2A2A"/>
<stop offset="1" stop-color="#938A8A"/>
</linearGradient>
<linearGradient id="paint2_linear_120_439" x1="70.5" y1="102.992" x2="70.5" y2="103.992" gradientUnits="userSpaceOnUse">
<stop stop-color="#2D2A2A"/>
<stop offset="1" stop-color="#938A8A"/>
</linearGradient>
</defs>
</svg>
